:SAMPLES-PER-SECOND 30
:FRAME-RANGE 1-3535
:FULLY-SPECIFIED
:DEGREES
3204
root  46.8452 39.247 -61.2072 6.61243 -77.2242 -0.926147
RightUpLeg  -6.08567 -7.62592 -3.54288
RightLeg  18.3253 -2.48321 -0.937552
RightFoot  -16.9531 0.22305 6.89145
RightToes  5.38503e-012 1.26228e-014 -6.01869e-014
Spine  -4.95585 -0.451541 2.01937
Spine1  8.3244 -1.03089 2.55458
HEad  12.396 10.2405 -1.27707
LeftShoulder1  1.59606 -3.22558 -18.0958
LeftArm  -2.91478 7.27792 -50.6551
LeftForeArm  32.1169 1.39761 -12.3384
LeftHand  -0.037895 4.3571 1.77635
RightShoulder  1.65903 2.27536 23.5744
RightArm  -22.4075 9.96047 59.1432
RightForeArm  55.5494 -5.95262 4.35206
RightHand  -0.0335113 -5.24058 -13.5494
LeftUpLeg  -11.1677 8.16175 10.5847
LeftLeg  25.5917 7.60556 4.28449
LeftFoot  -11.8667 0.0488258 -4.85375
LeftToes  8.9788e-011 3.29689e-010 2.1201e-011
3205
root  46.3001 39.2152 -61.3001 4.0719 -78.7259 1.7229
RightUpLeg  -5.65168 -6.98198 -3.99077
RightLeg  18.626 -1.73446 -0.747563
RightFoot  -17.6982 0.245586 6.57884
RightToes  5.38503e-012 1.26228e-014 -6.01869e-014
Spine  -4.22765 0.107911 3.43691
Spine1  8.17461 -0.274903 1.68862
HEad  11.7466 10.5633 -2.30348
LeftShoulder1  1.58479 -3.1378 -18.2665
LeftArm  -2.64862 7.1852 -51.27
LeftForeArm  32.7034 1.5768 -12.4765
LeftHand  -0.0365612 4.40107 1.65906
RightShoulder  1.74507 2.63305 23.2239
RightArm  -22.5999 11.1487 59.6018
RightForeArm  54.4413 -5.94696 4.11297
RightHand  -0.060939 -4.98985 -13.1324
LeftUpLeg  -14.6234 5.90381 7.76151
LeftLeg  29.3904 6.66739 4.38816
LeftFoot  -12.5198 0.0233808 -5.01638
LeftToes  8.9788e-011 3.29689e-010 2.1201e-011
3206
root  45.7415 39.2056 -61.351 0.0960083 -79.6857 5.90448
RightUpLeg  -4.98979 -6.37185 -4.62216
RightLeg  18.5161 -1.46637 -0.73389
RightFoot  -18.3377 0.266943 6.39632
RightToes  5.38503e-012 1.26228e-014 -6.01869e-014
Spine  -3.46612 0.593917 4.3398
Spine1  7.94691 0.358377 0.923854
HEad  11.1555 10.7074 -3.29542
LeftShoulder1  1.55261 -2.98918 -18.341
LeftArm  -2.52858 6.97119 -51.9711
LeftForeArm  33.037 1.89029 -12.5606
LeftHand  -0.037542 4.40518 1.54761
RightShoulder  1.80849 2.93895 22.7825
RightArm  -23.1167 12.6566 60.0892
RightForeArm  54.1787 -5.87276 3.61981
RightHand  -0.0880636 -4.72998 -12.8349
LeftUpLeg  -18.1133 3.92902 4.75935
LeftLeg  31.4998 7.60437 5.34502
LeftFoot  -12.8474 0.0197016 -4.35609
LeftToes  8.9788e-011 3.29689e-010 2.1201e-011
3207
root  45.1833 39.2247 -61.3849 -4.83075 -80.0884 11.3237
RightUpLeg  -4.49647 -6.11332 -5.43989
RightLeg  18.2734 -1.28834 -0.71734
RightFoot  -18.7775 0.289776 6.41394
RightToes  5.38503e-012 1.26228e-014 -6.01869e-014
Spine  -2.5883 1.03815 4.52417
Spine1  7.28826 0.853409 0.512778
HEad  10.7104 10.6981 -4.073
LeftShoulder1  1.52076 -2.82834 -18.478
LeftArm  -2.51478 6.7379 -52.5453
LeftForeArm  33.2758 2.21902 -12.6097
LeftHand  -0.0392029 4.42975 1.51461
RightShoulder  1.84441 3.12422 22.494
RightArm  -23.9854 14.0665 60.4324
RightForeArm  54.4544 -5.74384 2.89929
RightHand  -0.0721068 -4.88494 -13.0268
LeftUpLeg  -21.4655 2.7135 1.74801
LeftLeg  31.1145 8.92536 6.11508
LeftFoot  -12.7606 0.0301277 -3.74089
LeftToes  8.9788e-011 3.29689e-010 2.1201e-011
3208
root  44.5956 39.2625 -61.4018 -9.10956 -80.0982 16.0916
RightUpLeg  -3.626 -5.88378 -6.11793
RightLeg  17.4469 -1.507 -0.813527
RightFoot  -19.0141 0.297391 6.35305
RightToes  5.38503e-012 1.26228e-014 -6.01869e-014
Spine  -1.95222 1.44299 4.48626
Spine1  7.05639 1.27998 0.224198
HEad  10.0802 10.4148 -4.53473
LeftShoulder1  1.50743 -2.75344 -18.5712
LeftArm  -2.68024 5.96439 -53.1508
LeftForeArm  33.5053 3.25643 -12.599
LeftHand  -0.0368164 4.34665 1.62952
RightShoulder  1.89821 3.35309 22.3104
RightArm  -24.841 15.4507 60.6932
RightForeArm  54.5945 -5.61455 2.15627
RightHand  -0.0487599 -5.10102 -13.1626
LeftUpLeg  -24.1831 1.76379 -0.900504
LeftLeg  28.3812 9.96831 6.12462
LeftFoot  -11.9718 0.0511295 -3.74706
LeftToes  8.9788e-011 3.29689e-010 2.1201e-011
3209
root  43.9611 39.2656 -61.382 -12.5688 -79.8218 19.9965
RightUpLeg  -2.54176 -5.77503 -6.7525
RightLeg  16.5804 -1.8404 -0.943621
RightFoot  -19.4179 0.325852 6.47594
RightToes  5.38503e-012 1.26228e-014 -6.01869e-014
Spine  -1.42446 1.75326 4.39877
Spine1  6.95591 1.66203 -0.177573
HEad  9.70128 9.94702 -4.55531
LeftShoulder1  1.51256 -2.82633 -18.3424
LeftArm  -2.86355 5.17357 -53.7797
LeftForeArm  33.7868 4.20945 -12.5977
LeftHand  -0.0347944 4.58081 1.63598
RightShoulder  1.9496 3.52842 22.3371
RightArm  -25.7716 16.9881 60.9213
RightForeArm  54.8403 -5.46065 1.29142
RightHand  -0.0555411 -5.0432 -13.3492
LeftUpLeg  -26.473 0.785512 -3.2477
LeftLeg  24.581 11.1543 5.85093
LeftFoot  -10.4476 0.0858428 -2.97293
LeftToes  8.9788e-011 3.29689e-010 2.1201e-011
3210
root  43.2818 39.2156 -61.3247 -15.0953 -79.7177 22.9689
RightUpLeg  -1.56891 -5.65704 -7.27113
RightLeg  16.0484 -1.94194 -0.996665
RightFoot  -20.0003 0.367439 6.63971
RightToes  5.38503e-012 1.26228e-014 -6.01869e-014
Spine  -0.760242 2.09031 4.42959
Spine1  6.62061 2.10973 -0.654265
HEad  9.31972 9.59036 -4.56647
LeftShoulder1  1.48979 -2.76681 -18.198
LeftArm  -3.0722 4.39505 -54.2174
LeftForeArm  34.1431 4.9313 -12.5455
LeftHand  -0.0324294 4.76307 1.46633
RightShoulder  1.97564 3.5676 22.5686
RightArm  -27.121 18.2447 61.4347
RightForeArm  56.2236 -5.21693 0.112722
RightHand  -0.0348901 -5.22978 -13.8821
LeftUpLeg  -28.602 0.551849 -5.18702
LeftLeg  20.9396 12.7658 5.65851
LeftFoot  -9.2103 0.112295 -3.06707
LeftToes  8.9788e-011 3.29689e-010 2.1201e-011
3211
root  42.5596 39.1118 -61.2271 -16.8771 -80.1361 25.2446
RightUpLeg  -0.868897 -5.38204 -7.58988
RightLeg  15.9223 -1.75318 -0.938264
RightFoot  -20.7529 0.415454 6.7514
RightToes  5.38503e-012 1.26228e-014 -6.01869e-014
Spine  -0.350711 2.51573 4.62866
Spine1  6.50853 2.68226 -1.23611
HEad  9.11618 9.43829 -4.51952
LeftShoulder1  1.49385 -2.82487 -18.0185
LeftArm  -3.12163 3.65815 -54.6645
LeftForeArm  34.2753 5.48343 -12.5425
LeftHand  -0.0305646 4.98279 1.36852
RightShoulder  2.02418 3.81223 22.2483
RightArm  -28.092 19.7325 62.3452
RightForeArm  57.6499 -4.98225 -0.990013
RightHand  -0.00630597 -5.46519 -14.5594
LeftUpLeg  -30.8272 0.11394 -6.21642
LeftLeg  18.439 15.9183 6.12222
LeftFoot  -8.0227 0.11521 -2.31459
LeftToes  8.9788e-011 3.29689e-010 2.1201e-011
3212
root  41.765 38.963 -61.0867 -17.2844 -80.7048 26.085
RightUpLeg  -0.197454 -4.93937 -7.66326
RightLeg  16.1939 -1.52898 -0.861016
RightFoot  -21.567 0.486477 7.06585
RightToes  5.38503e-012 1.26228e-014 -6.01869e-014
Spine  -0.0224465 2.74714 4.73771
Spine1  6.35779 3.01202 -1.64624
HEad  9.09551 9.7768 -4.44038
LeftShoulder1  1.48291 -2.81705 -17.8586
LeftArm  -2.60621 2.85609 -54.8864
LeftForeArm  34.929 5.7354 -12.7174
LeftHand  -0.0306866 4.91895 1.2722
RightShoulder  2.10153 4.09883 22.195
RightArm  -28.7287 21.2573 63.1865
RightForeArm  60.7287 -4.71254 -1.96121
RightHand  0.0184826 -5.68484 -13.9535
LeftUpLeg  -33.1142 -1.32983 -5.92886
LeftLeg  17.3758 17.6352 6.28381
LeftFoot  -6.45254 0.0729432 -0.799976
LeftToes  8.9788e-011 3.29689e-010 2.1201e-011
3213
root  40.8994 38.7873 -60.9053 -17.0953 -81.3665 26.2205
RightUpLeg  0.527672 -4.30466 -7.65621
RightLeg  16.8305 -1.34214 -0.787445
RightFoot  -22.3708 0.584718 7.62024
RightToes  5.38503e-012 1.26228e-014 -6.01869e-014
Spine  0.173537 2.88362 4.53559
Spine1  6.40659 3.15765 -1.72002
HEad  8.61888 10.1971 -4.32673
LeftShoulder1  1.5009 -2.94692 -17.6259
LeftArm  -1.98635 2.21058 -55.1625
LeftForeArm  35.4741 4.95308 -12.9058
LeftHand  -0.0348907 5.09995 1.05292
RightShoulder  2.15496 4.26025 22.3059
RightArm  -28.7 23.0879 64.0679
RightForeArm  64.1367 -4.48222 -2.60246
RightHand  0.117937 -6.47861 -14.5342
LeftUpLeg  -35.1775 -3.12014 -4.86049
LeftLeg  17.4173 16.8717 6.10803
LeftFoot  -5.6675 0.0478418 -0.277285
LeftToes  8.9788e-011 3.29689e-010 2.1201e-011
3214
root  39.9549 38.587 -60.6734 -17.1733 -82.1202 26.4437
RightUpLeg  1.25199 -3.16487 -7.71521
RightLeg  18.1284 -1.23624 -0.693887
RightFoot  -23.1142 0.720548 8.4989
RightToes  5.38503e-012 1.26228e-014 -6.01869e-014
Spine  0.402593 2.95087 4.04728
Spine1  6.50705 3.23096 -1.77466
HEad  8.04118 10.6712 -3.872
LeftShoulder1  1.53289 -3.23817 -16.9975
LeftArm  -0.977657 1.20992 -55.9224
LeftForeArm  35.5551 4.36166 -13.2326
LeftHand  -0.0343772 5.10719 1.2039
RightShoulder  2.23831 4.50153 22.5105
RightArm  -27.9459 24.6135 64.7349
RightForeArm  69.1896 -4.28243 -2.6716
RightHand  0.183828 -7.04345 -14.3134
LeftUpLeg  -36.9141 -5.21038 -3.12437
LeftLeg  18.9714 15.338 6.10049
LeftFoot  -6.77297 0.0535047 -0.320311
LeftToes  8.9788e-011 3.29689e-010 2.1201e-011
3215
root  38.9312 38.3507 -60.3812 -17.1527 -83.0748 26.4831
RightUpLeg  1.74729 -1.85276 -7.79294
RightLeg  20.3047 -0.806637 -0.543896
RightFoot  -23.7637 0.888682 9.63085
RightToes  5.38503e-012 1.26228e-014 -6.01869e-014
Spine  0.703006 3.03549 3.27251
Spine1  6.45822 3.24252 -1.54609
HEad  7.34037 11.3056 -3.30786
LeftShoulder1  1.54007 -3.39264 -16.5268
LeftArm  0.817702 -0.265835 -56.6159
LeftForeArm  35.8554 3.5945 -13.692
LeftHand  -0.031063 4.87954 1.31718
RightShoulder  2.29973 4.70168 22.5679
RightArm  -26.1781 25.9605 65.2871
RightForeArm  74.4418 -4.19701 -1.96356
RightHand  0.278126 -7.80318 -14.4191
LeftUpLeg  -38.4593 -6.51556 -1.34752
LeftLeg  22.0383 13.9084 6.43492
LeftFoot  -7.73506 0.0580318 -0.366583
LeftToes  8.9788e-011 3.29689e-010 2.1201e-011
3216
root  37.8255 38.0761 -60.0156 -17.0803 -84.14 26.2866
RightUpLeg  1.975 -0.642847 -8.06838
RightLeg  23.6328 0.324377 -0.0634462
RightFoot  -24.1507 1.0966 11.2023
RightToes  5.38503e-012 1.26228e-014 -6.01869e-014
Spine  1.07144 3.02362 2.47357
Spine1  6.50995 3.1871 -1.48841
HEad  6.19175 12.1323 -2.57218
LeftShoulder1  1.56038 -3.64825 -15.9244
LeftArm  3.40628 -1.80657 -57.3671
LeftForeArm  35.7007 2.19832 -14.1784
LeftHand  -0.0315409 4.89713 1.49723
RightShoulder  2.34759 4.8823 22.5189
RightArm  -23.5267 27.0973 65.9031
RightForeArm  80.9194 -4.16007 -0.595913
RightHand  0.405613 -8.86564 -14.3473
LeftUpLeg  -39.2968 -6.5459 -0.411212
LeftLeg  26.0163 14.3124 7.8126
LeftFoot  -10.0358 0.0734615 -1.16027
LeftToes  8.9788e-011 3.29689e-010 2.1201e-011
3217
root  36.6605 37.8447 -59.5845 -20.7981 -85.1438 29.9623
RightUpLeg  1.60166 0.751624 -8.86546
RightLeg  27.9794 1.70355 0.75436
RightFoot  -23.6505 1.26705 13.1925
RightToes  5.38503e-012 1.26228e-014 -6.01869e-014
Spine  1.00089 2.92212 0.97324
Spine1  7.05113 3.08351 -1.58307
HEad  5.03273 13.338 -2.01651
LeftShoulder1  1.61898 -4.07645 -15.3705
LeftArm  5.92042 -3.19901 -58.0978
LeftForeArm  35.3876 0.625499 -14.4616
LeftHand  -0.0351408 4.44105 1.51281
RightShoulder  2.4158 5.20477 22.2206
RightArm  -18.8938 27.7297 66.0699
RightForeArm  85.4077 -4.48613 2.49011
RightHand  0.431595 -9.26511 -13.71
LeftUpLeg  -39.2042 -5.71595 -0.595009
LeftLeg  29.9226 16.1308 10.1423
LeftFoot  -11.8636 0.0561742 -3.27822
LeftToes  8.9788e-011 3.29689e-010 2.1201e-011
3218
root  35.4228 37.6089 -59.0861 -25.0486 -85.8091 34.009
RightUpLeg  0.466377 2.13984 -9.92303
RightLeg  34.14 3.38992 2.22596
RightFoot  -21.784 1.27452 15.4872
RightToes  5.38503e-012 1.26228e-014 -6.01869e-014
Spine  1.12547 2.66092 -1.04153
Spine1  7.18358 2.58831 -1.08759
HEad  4.21595 14.8382 -1.53684
LeftShoulder1  1.67475 -4.45296 -14.993
LeftArm  9.16163 -4.88928 -58.6939
LeftForeArm  33.3994 -0.736878 -14.7987
LeftHand  -0.0290317 5.2525 3.07591
RightShoulder  2.44467 5.26715 22.3604
RightArm  -13.0239 28.1888 65.7123
RightForeArm  89.6417 -4.96529 6.55673
RightHand  0.457664 -9.71697 -13.042
LeftUpLeg  -38.8255 -3.42676 -2.03358
LeftLeg  33.5579 13.9684 10.1307
LeftFoot  -13.2855 0.018351 -3.61007
LeftToes  8.9788e-011 3.29689e-010 2.1201e-011
